<svg width="18" height="18" viewBox="0 0 18 18" fill="none" xmlns="http://www.w3.org/2000/svg">
<path d="M8.977 17.31C7.437 17.31 6.04 16.9543 4.786 16.243C3.532 15.539 2.54567 14.571 1.827 13.339C1.11567 12.0997 0.76 10.7137 0.76 9.181C0.76 7.553 1.10833 6.10467 1.805 4.836C2.509 3.56 3.488 2.57 4.742 1.866C5.996 1.162 7.426 0.809999 9.032 0.809999C10.8067 0.809999 12.3137 1.184 13.553 1.932C14.7997 2.68 15.72 3.66267 16.314 4.88C16.9153 6.09 17.1793 7.388 17.106 8.774C17.0327 10.16 16.7063 11.205 16.127 11.909C15.5477 12.613 14.7337 12.965 13.685 12.965C13.003 12.965 12.4127 12.8073 11.914 12.492C11.4227 12.1767 11.0927 11.733 10.924 11.161L11.452 11.216C11.2027 11.7147 10.8287 12.0887 10.33 12.338C9.83867 12.58 9.29967 12.701 8.713 12.701C8.053 12.701 7.47 12.558 6.964 12.272C6.458 11.9787 6.062 11.5753 5.776 11.062C5.49733 10.5413 5.358 9.94733 5.358 9.28C5.358 8.59067 5.50467 7.98933 5.798 7.476C6.09133 6.95533 6.49467 6.55567 7.008 6.277C7.52133 5.991 8.10067 5.848 8.746 5.848C9.25933 5.848 9.76533 5.95433 10.264 6.167C10.7627 6.37967 11.1403 6.695 11.397 7.113L10.968 7.597V6.156H12.134L12.123 9.731C12.123 10.303 12.255 10.754 12.519 11.084C12.7903 11.4067 13.2047 11.568 13.762 11.568C14.136 11.568 14.455 11.469 14.719 11.271C14.983 11.0657 15.192 10.7833 15.346 10.424C15.5 10.0647 15.5917 9.61367 15.621 9.071L15.632 8.895C15.6907 7.45767 15.434 6.23667 14.862 5.232C14.29 4.22733 13.498 3.472 12.486 2.966C11.4813 2.45267 10.3557 2.196 9.109 2.196C7.68633 2.196 6.45433 2.50767 5.413 3.131C4.37167 3.75433 3.57967 4.59767 3.037 5.661C2.49433 6.72433 2.23033 7.894 2.245 9.17C2.25967 10.4533 2.564 11.6083 3.158 12.635C3.75933 13.6617 4.57333 14.4647 5.6 15.044C6.634 15.6307 7.78533 15.924 9.054 15.924C9.67733 15.924 10.3007 15.8433 10.924 15.682C11.5547 15.5207 12.1157 15.297 12.607 15.011L13.124 16.243C12.4933 16.595 11.826 16.859 11.122 17.035C10.418 17.2183 9.703 17.31 8.977 17.31ZM8.801 11.293C9.395 11.293 9.868 11.1243 10.22 10.787C10.572 10.4423 10.748 9.93633 10.748 9.269C10.748 8.609 10.5757 8.103 10.231 7.751C9.89367 7.399 9.428 7.223 8.834 7.223C8.174 7.223 7.668 7.40267 7.316 7.762C6.97133 8.12133 6.799 8.62367 6.799 9.269C6.799 9.91433 6.975 10.413 7.327 10.765C7.68633 11.117 8.17767 11.293 8.801 11.293Z" fill="black"/>
</svg>
