<svg width="52" height="22" viewBox="0 0 52 22" fill="none" xmlns="http://www.w3.org/2000/svg">
<rect x="0.342105" y="0.342105" width="51.3158" height="20.5263" rx="10.2632" fill="#F6E29B" stroke="black" stroke-width="0.684211"/>
<path d="M19.2195 11.2984C19.2195 10.7647 19.1579 10.3018 19.0347 9.90947C18.9161 9.51719 18.7063 9.19789 18.4053 8.95158C18.1088 8.7007 17.7119 8.57526 17.2147 8.57526C16.7951 8.57526 16.4347 8.66877 16.1337 8.85579C15.8326 9.03825 15.5977 9.31877 15.4289 9.69737C15.2647 10.076 15.1826 10.5458 15.1826 11.1068L14.3821 10.8605C14.3821 10.1535 14.5098 9.54228 14.7653 9.02684C15.0207 8.50684 15.3833 8.11 15.8532 7.83632C16.323 7.55807 16.8749 7.41895 17.5089 7.41895C18.2525 7.41895 18.8432 7.6014 19.2811 7.96632C19.7189 8.32667 20.0223 8.76228 20.1911 9.27316C20.3644 9.78403 20.4511 10.3314 20.4511 10.9153V15H19.2195V11.2984ZM13.9511 15V7.61053H15.0458V9.58789H15.1826V15H13.9511ZM25.0231 15.2053C24.3024 15.2053 23.6683 15.0456 23.121 14.7263C22.5782 14.407 22.1562 13.9554 21.8552 13.3716C21.5587 12.7877 21.4104 12.1149 21.4104 11.3532C21.4104 10.5549 21.5564 9.8593 21.8483 9.26632C22.1448 8.66877 22.5599 8.21035 23.0936 7.89105C23.6318 7.56719 24.2568 7.40526 24.9683 7.40526C25.7027 7.40526 26.3322 7.57632 26.8568 7.91842C27.3859 8.25596 27.7804 8.74403 28.0404 9.38263C28.305 10.0212 28.419 10.7761 28.3826 11.6474H27.151V11.2095C27.1418 10.6028 27.0575 10.1011 26.8978 9.70421C26.7382 9.30281 26.501 9.00175 26.1862 8.80105C25.8715 8.60035 25.4792 8.5 25.0094 8.5C24.5122 8.5 24.0903 8.60947 23.7436 8.82842C23.4015 9.04281 23.1415 9.35982 22.9636 9.77947C22.7903 10.1946 22.7036 10.7032 22.7036 11.3053C22.7036 11.8846 22.7903 12.3795 22.9636 12.79C23.1415 13.196 23.3992 13.5084 23.7368 13.7274C24.0789 13.9418 24.4894 14.0489 24.9683 14.0489C25.4518 14.0489 25.8738 13.9372 26.2341 13.7137C26.599 13.4902 26.8841 13.1686 27.0894 12.7489L28.2594 13.1526C28.0678 13.5814 27.8101 13.9509 27.4862 14.2611C27.1624 14.5667 26.7906 14.8016 26.371 14.9658C25.9513 15.1254 25.502 15.2053 25.0231 15.2053ZM22.2931 11.6474V10.6689H27.7531V11.6474H22.2931ZM30.8702 15L28.6123 7.60368L29.8233 7.61053L31.4723 13.0158L33.1349 7.61053H34.2091L35.8649 13.0158L37.5207 7.61053H38.7249L36.467 15H35.4544L33.6686 9.38263L31.8828 15H30.8702Z" fill="black"/>
</svg>
